<svg width="62" height="61" viewBox="0 0 62 61" fill="none" xmlns="http://www.w3.org/2000/svg">
<path d="M30.9209 60.3652C47.6087 60.3652 61.1367 47.0453 61.1367 30.6143C61.1367 14.1832 47.6087 0.863281 30.9209 0.863281C14.2332 0.863281 0.705078 14.1832 0.705078 30.6143C0.705078 47.0453 14.2332 60.3652 30.9209 60.3652Z" fill="#DA0000"/>
<path d="M50.2188 21.0675C49.9906 20.2211 49.5391 19.4492 48.9102 18.83C48.2813 18.2107 47.4973 17.7662 46.6377 17.5415C43.5176 16.7305 30.921 16.7305 30.921 16.7305C30.921 16.7305 18.3199 16.7305 15.1774 17.5591C14.3219 17.7872 13.5426 18.2333 12.9179 18.8523C12.2931 19.4713 11.845 20.2414 11.6187 21.0851C10.7771 24.1704 10.7771 30.6319 10.7771 30.6319C10.7771 30.6319 10.7771 37.0845 11.6187 40.1786C11.845 41.0224 12.2931 41.7925 12.9179 42.4115C13.5426 43.0305 14.3219 43.4765 15.1774 43.7047C18.3109 44.5333 30.921 44.5333 30.921 44.5333C30.921 44.5333 43.5176 44.5333 46.6601 43.7047C47.5197 43.4799 48.3037 43.0354 48.9326 42.4162C49.5615 41.797 50.0129 41.025 50.2412 40.1786C51.0872 37.0934 51.0872 30.6319 51.0872 30.6319C51.0872 30.6319 51.0649 24.1616 50.2188 21.0675ZM26.8922 36.5644V24.6641L37.3536 30.6143L26.8922 36.5644Z" fill="white"/>
</svg>
